<svg width="1431" height="892" viewBox="0 0 1431 892" fill="none" xmlns="http://www.w3.org/2000/svg">
<path d="M0 152C0 69.1573 67.1573 2 150 2H477V225H0V152Z" fill="#0E2431" fill-opacity="0.05"/>
<path d="M477 296C477 378.843 544.157 446 627 446H954V223H477V296Z" fill="#0E2431" fill-opacity="0.05"/>
<path d="M477 742C477 824.843 544.157 892 627 892H954V669H477V742Z" fill="#0E2431" fill-opacity="0.05"/>
<path d="M477 519C477 601.843 409.843 669 327 669H0V446H477V519Z" fill="#0E2431" fill-opacity="0.05"/>
<path d="M1431 73C1431 155.843 1363.84 223 1281 223H954V0H1431V73Z" fill="#0E2431" fill-opacity="0.05"/>
<path d="M1431 519C1431 601.843 1363.84 669 1281 669H954V446H1431V519Z" fill="#0E2431" fill-opacity="0.05"/>
</svg>
